# xmcd
#
# Track frame offsets:
#	150
#	12117
#	31210
#	49997
#	69405
#	86472
#	101532
#	116377
#	132692
#	146242
#
# Disc length: 2146 seconds
#
# Revision: 3
# Processed by: cddbd v1.5.2PL0 Copyright (c) Steve Scherf et al.
# Submitted via: EasyCDDAExtractor 6.2.0.3
#
DISCID=8608600a
DTITLE=Tanya Tucker - Can't Run From Yourself
DYEAR=1992
DGENRE=Country
TTITLE0=It's A Little Too Late
TTITLE1=Can't Run From Yourself
TTITLE2=Two Sparrows In A Hurricane
TTITLE3=Don't Let My Heart Be The Last To Know
TTITLE4=Tell Me About It
TTITLE5=I've Learned To Live
TTITLE6=What Do They Know
TTITLE7=Rainbow Rider
TTITLE8=Half The Moon
TTITLE9=Danger Ahead
EXTD=
EXTT0=
EXTT1=
EXTT2=
EXTT3=
EXTT4=
EXTT5=
EXTT6=
EXTT7=
EXTT8=
EXTT9=
PLAYORDER=
